<?xml version="1.0" encoding="utf-8"?>
<!-- Generator: Adobe Illustrator 26.5.0, SVG Export Plug-In . SVG Version: 6.00 Build 0)  -->
<svg version="1.1" id="Layer_1" xmlns="http://www.w3.org/2000/svg" xmlns:xlink="http://www.w3.org/1999/xlink" x="0px" y="0px"
	 viewBox="0 0 197.8 50" style="enable-background:new 0 0 197.8 50;" xml:space="preserve">
<style type="text/css">
	.st0{fill:url(#SVGID_1_);}
	.st1{fill:url(#SVGID_00000060713735101082518510000001913109135474992284_);}
	.st2{fill:url(#SVGID_00000020378614774933826710000002816374302011590331_);}
	.st3{fill:url(#SVGID_00000181768874447379344420000003838057374023631514_);}
</style>
<g>
	<linearGradient id="SVGID_1_" gradientUnits="userSpaceOnUse" x1="29.9583" y1="-17.9774" x2="29.9583" y2="44.015">
		<stop  offset="0" style="stop-color:#010202"/>
		<stop  offset="1" style="stop-color:#662483"/>
		<stop  offset="1" style="stop-color:#000000"/>
	</linearGradient>
	<path class="st0" d="M59.9,0L49.3,50H32.4l3.9-18.4H20.8L16.9,50H0L10.6,0h16.9l-3.8,17.7h15.6L43.1,0H59.9z"/>
	
		<linearGradient id="SVGID_00000121266902623765181020000002953274672091269538_" gradientUnits="userSpaceOnUse" x1="83.3515" y1="-17.9774" x2="83.3515" y2="44.015">
		<stop  offset="0" style="stop-color:#010202"/>
		<stop  offset="1" style="stop-color:#662483"/>
		<stop  offset="1" style="stop-color:#000000"/>
	</linearGradient>
	<path style="fill:url(#SVGID_00000121266902623765181020000002953274672091269538_);" d="M104.4,36.9L101.6,50H55.6l2.2-10.4
		l28.5-26.6H64.2L67,0h44.1l-2.2,10.4L80.4,36.9H104.4z"/>
	
		<linearGradient id="SVGID_00000178918930906512003070000008897690510029014718_" gradientUnits="userSpaceOnUse" x1="132.424" y1="-17.9774" x2="132.424" y2="44.015">
		<stop  offset="0" style="stop-color:#010202"/>
		<stop  offset="1" style="stop-color:#662483"/>
		<stop  offset="1" style="stop-color:#000000"/>
	</linearGradient>
	<path style="fill:url(#SVGID_00000178918930906512003070000008897690510029014718_);" d="M153.4,36.9L150.6,50h-45.9l2.2-10.4
		l28.5-26.6h-22.1L116.1,0h44.1l-2.2,10.4l-28.5,26.6H153.4z"/>
	
		<linearGradient id="SVGID_00000061435860088750729990000013816843768677284252_" gradientUnits="userSpaceOnUse" x1="176.6791" y1="-17.9774" x2="176.6791" y2="44.015">
		<stop  offset="0" style="stop-color:#010202"/>
		<stop  offset="1" style="stop-color:#662483"/>
		<stop  offset="1" style="stop-color:#000000"/>
	</linearGradient>
	<path style="fill:url(#SVGID_00000061435860088750729990000013816843768677284252_);" d="M166.2,0h16.9l-7.8,36.9h22.6L195,50
		h-39.4L166.2,0z"/>
</g>
</svg>
